<svg height="43" viewBox="0 0 228 43" width="228" xmlns="http://www.w3.org/2000/svg"><g fill="#fff" fill-rule="evenodd"><g transform="translate(99)"><path d="m39.5125567 12.3381957c.0018358-.0778986.0048955-.155174.0048955-.2343189 0-5.94085506-4.2425821-9.8837681-10.7658656-9.8837681h-13.1824179c-.3757314.00124637-5.2204627.12214492-5.2204627 5.43482608v1.4514058h18.5368955c3.9176418 0 8.3664478.65372464 10.6269552 3.23185512"/><path d="m33.6838866 24.3415522v-.2162464c1.4925224-.1682609 3.3999403-1.1616232 4.6195373-3.0972464-.000612-.0143333-.0042836-.0280435-.0042836-.043 0-3.741-4.4524776-4.515-7.4583284-4.6757826.123612.3757826.1915374.7852174.1915374 1.227058 0 2.4304348-1.6969105 4.0507246-4.2958209 4.0507246h-7.637015v-5.3201594h-8.7507462v26.5459565h18.4561194c7.7428806 0 11.7204925-4.1591594 11.7204925-10.1536087 0-5.4553913-3.5529254-8.047855-6.8414925-8.3176956m-6.4174179 11.2878116h-8.1669553v-7.9394203h8.3266717c2.4924328 0 4.1893433 1.5124782 4.1893433 3.8886956 0 2.4846522-1.537806 4.0507247-4.3490597 4.0507247"/><path d="m4.20439701.60075362c-2.30579104 0-4.17526865 1.90384058-4.17526865 4.2520145 0 2.34817391 1.86947761 4.25201449 4.17526865 4.25201449 2.30579105 0 4.17526866-1.90384058 4.17526866-4.25201449 0-2.34817392-1.86947761-4.2520145-4.17526866-4.2520145"/></g><path d="m41.9683413 7-6.215012 22.675071-6.1101923-22.675071h-8.3402163l-6.1095794 22.675071-6.21562495-22.675071h-8.97771635l10.1466707 36h9.3497956l6.0029207-22.2441746 5.9508173 22.2441746h9.402512l10.1472837-36z"/><g transform="translate(47 3)"><path d="m14.7043659 11.1829375c-7.81635839 0-14.24093177 5.85-14.24093177 14.408125 0 8.6125 6.42457338 14.40875 14.18718767 14.40875 6.1570888 0 11.0292628-2.763125 13.3309898-8.504375l-7.602-1.570625c-1.4461468 2.65375-3.7478737 3.14125-5.7289898 3.14125-2.891058 0-5.08591463-2.00375-5.782116-5.254375h19.7018191v-2.220625c-.1599966-8.883125-6.2633413-14.408125-13.865959-14.408125zm-5.67524576 11.320625c.80368942-2.7625 3.26603076-4.27875 5.67524576-4.27875 2.462959 0 4.6040716 1.35375 5.4071433 4.27875z"/><path d="m47.5167625 11.1829375c-3.4797714 0-6.2639591 1.08375-8.3519454 2.979375v-13.975h-8.5663038v38.999375h8.5663038v-2.16625c2.0879863 1.895625 4.872174 2.979375 8.3519454 2.979375 7.1207747 0 13.1166314-5.79625 13.1166314-14.40875 0-8.558125-5.9958567-14.408125-13.1166314-14.408125m-1.7667577 21.45c-3.4797714 0-6.5851877-2.816875-6.5851877-7.041875 0-4.170625 3.1054163-7.04125 6.5851877-7.04125 3.747256 0 6.4783174 2.870625 6.4783174 7.04125 0 4.225-2.7310614 7.041875-6.4783174 7.041875"/><path d="m108.785386 11.1829375c-7.816358 0-14.2409317 5.85-14.2409317 14.408125 0 8.6125 6.4245737 14.40875 14.1871877 14.40875 6.157089 0 11.029263-2.763125 13.33099-8.504375l-7.602-1.570625c-1.446147 2.65375-3.747874 3.14125-5.72899 3.14125-2.891058 0-5.085915-2.00375-5.781498-5.254375h19.701201v-2.220625c-.159997-8.883125-6.263341-14.408125-13.865959-14.408125zm-5.675246 11.320625c.80369-2.7625 3.266031-4.27875 5.675246-4.27875 2.462959 0 4.604072 1.35375 5.407143 4.27875z"/><path d="m145.780859 14.162375c-2.087986-1.895625-4.872174-2.979375-8.351945-2.979375-7.120775 0-13.116631 5.85-13.116631 14.408125 0 8.6125 5.995856 14.40875 13.116631 14.40875 3.479771 0 6.263959-1.08375 8.351945-2.979375v2.166875h8.565686v-39h-8.565686zm-6.585187 18.470625c-3.747874 0-6.478318-2.816875-6.478318-7.041875 0-4.170625 2.730444-7.04125 6.478318-7.04125 3.479771 0 6.585187 2.870625 6.585187 7.04125 0 4.225-3.105416 7.041875-6.585187 7.041875z"/><path d="m173.064911 22.6664375-6.317703-1.3c-1.713014-.379375-2.034243-1.1375-2.034243-1.895625 0-.975.749328-2.1125 3.051673-2.1125 2.623573 0 4.229716 1.51625 4.497201 3.195625l7.816976-1.57125c-1.071174-4.7125-5.514631-7.799375-12.206689-7.799375-6.799546 0-11.564232 3.62875-11.564232 9.208125 0 4.27875 2.837314 6.9875 7.816358 7.908125l5.460887 1.083125c1.980499.379375 2.6767 1.08375 2.6767 2.004375 0 1.191875-1.231171 2.166875-3.479771 2.166875-2.302345 0-4.390331-.866875-4.765304-3.19625l-8.351328 1.73375c.909942 5.57875 6.317086 7.908125 12.634789 7.908125 7.067648 0 12.206689-3.14125 12.206689-9.15375 0-4.00875-2.356089-7.09625-7.442003-8.179375"/></g></g></svg>